<?xml version="1.0" encoding="UTF-8"?>
<svg width="25px" height="25px" viewBox="0 0 25 25" version="1.1" xmlns="http://www.w3.org/2000/svg" xmlns:xlink="http://www.w3.org/1999/xlink">
    <title>navbar_icon_close_white</title>
    <g id="首页加资讯" stroke="none" stroke-width="1" fill="none" fill-rule="evenodd">
        <g id="组件" transform="translate(-1613.000000, -2853.000000)" fill="#FFFFFF">
            <path d="M1615.58954,2853.46903 L1625.484,2863.364 L1635.38954,2853.45803 C1635.97972,2852.90006 1636.90678,2852.91317 1637.48095,2853.4876 C1638.05511,2854.06204 1638.06779,2854.98911 1637.50954,2855.57903 L1627.604,2865.484 L1637.50954,2875.38903 C1638.06779,2875.97894 1638.05511,2876.90601 1637.48095,2877.48045 C1636.90678,2878.05488 1635.97972,2878.06799 1635.38954,2877.51003 L1625.484,2867.605 L1615.58954,2877.49903 C1615.21436,2877.89549 1614.65342,2878.05686 1614.12492,2877.92035 C1613.59641,2877.78384 1613.18378,2877.37102 1613.04753,2876.84245 C1612.91127,2876.31388 1613.0729,2875.75302 1613.46954,2875.37803 L1623.363,2865.484 L1613.46954,2855.59003 C1613.0729,2855.21503 1612.91127,2854.65417 1613.04753,2854.1256 C1613.18378,2853.59703 1613.59641,2853.18421 1614.12492,2853.0477 C1614.65342,2852.9112 1615.21436,2853.07256 1615.58954,2853.46903 Z" id="navbar_icon_close_white"></path>
        </g>
    </g>
</svg>